<?xml version="1.0" encoding="utf-8"?>
<!-- Generator: Adobe Illustrator 27.2.0, SVG Export Plug-In . SVG Version: 6.00 Build 0)  -->
<svg version="1.1" id="TOLION_Health" xmlns="http://www.w3.org/2000/svg" xmlns:xlink="http://www.w3.org/1999/xlink" x="0px"
	 y="0px" width="418.558px" height="150.313px" viewBox="0 0 418.558 150.313" style="enable-background:new 0 0 418.558 150.313;"
	 xml:space="preserve">
<style type="text/css">
	.st0{fill:#4F4F4F;}
	.st1{fill:#231F20;}
	.st2{fill-rule:evenodd;clip-rule:evenodd;fill:#31859C;}
</style>
<g>
	<g>
		<path class="st0" d="M242.239,144.878h4.439v-27.36h-4.439v-0.561h12.88v0.561h-4.44v13.08h13.32v-13.08h-4.44v-0.561h12.88v0.561
			h-4.439v27.36h4.439v0.56h-12.88v-0.56h4.44v-13.721h-13.32v13.721h4.44v0.56h-12.88V144.878z"/>
		<path class="st0" d="M279.478,135.517c0,0.267-0.007,0.54-0.021,0.82c-0.014,0.279-0.02,0.634-0.02,1.06
			c0,0.88,0.053,1.8,0.16,2.76c0.106,0.96,0.34,1.827,0.7,2.601c0.359,0.773,0.893,1.413,1.6,1.92c0.706,0.507,1.646,0.76,2.82,0.76
			c1.173,0,2.14-0.173,2.899-0.52c0.761-0.347,1.36-0.767,1.8-1.261c0.44-0.493,0.767-0.993,0.98-1.5
			c0.213-0.506,0.373-0.92,0.48-1.239l0.6,0.119c-0.08,0.294-0.233,0.714-0.46,1.261s-0.587,1.094-1.08,1.64
			c-0.494,0.547-1.16,1.027-2,1.44s-1.927,0.619-3.26,0.619c-1.334,0-2.567-0.213-3.7-0.64c-1.134-0.426-2.114-1.04-2.94-1.84
			s-1.467-1.753-1.92-2.86c-0.453-1.106-0.68-2.34-0.68-3.7c0-1.173,0.233-2.312,0.7-3.42c0.466-1.105,1.106-2.086,1.92-2.939
			c0.812-0.854,1.766-1.54,2.859-2.061c1.094-0.52,2.267-0.779,3.521-0.779c0.746,0,1.546,0.134,2.4,0.399
			c0.853,0.268,1.646,0.7,2.38,1.3c0.732,0.601,1.346,1.395,1.84,2.381c0.493,0.986,0.74,2.213,0.74,3.68H279.478z M287.719,134.957
			c0.053-0.373,0.08-0.72,0.08-1.039c0-0.32,0-0.653,0-1c0-0.906-0.087-1.653-0.261-2.24s-0.413-1.054-0.72-1.4
			c-0.307-0.346-0.68-0.593-1.12-0.74c-0.439-0.146-0.913-0.22-1.42-0.22c-0.907,0-1.653,0.18-2.24,0.54s-1.054,0.847-1.399,1.46
			c-0.347,0.614-0.607,1.32-0.78,2.12c-0.174,0.8-0.287,1.64-0.34,2.52H287.719z"/>
		<path class="st0" d="M312.759,144.997c-0.348,0.268-0.761,0.5-1.24,0.7c-0.48,0.2-1.067,0.3-1.76,0.3
			c-1.28,0-2.207-0.273-2.78-0.819c-0.574-0.547-0.967-1.313-1.18-2.3h-0.08c-0.107,0.239-0.254,0.54-0.44,0.899
			c-0.187,0.36-0.474,0.707-0.86,1.04c-0.387,0.334-0.899,0.614-1.539,0.84c-0.641,0.227-1.454,0.34-2.44,0.34
			c-1.12,0-2.014-0.126-2.68-0.38c-0.667-0.253-1.188-0.566-1.561-0.939c-0.374-0.373-0.62-0.793-0.74-1.26
			c-0.119-0.467-0.18-0.9-0.18-1.301c0-0.933,0.187-1.68,0.561-2.239c0.373-0.561,0.859-1.007,1.46-1.341
			c0.6-0.333,1.266-0.605,2-0.819c0.732-0.214,1.473-0.44,2.22-0.681c0.88-0.293,1.606-0.546,2.18-0.76
			c0.573-0.213,1.021-0.473,1.34-0.78c0.32-0.306,0.54-0.692,0.66-1.159s0.181-1.101,0.181-1.9c0-0.64-0.04-1.213-0.12-1.72
			s-0.228-0.94-0.44-1.3c-0.214-0.36-0.52-0.634-0.92-0.82s-0.934-0.28-1.6-0.28c-0.881,0-1.607,0.154-2.181,0.46
			c-0.573,0.307-0.859,0.807-0.859,1.5c0,0.454,0.04,0.9,0.12,1.34c0.079,0.44,0.119,0.768,0.119,0.98
			c0,0.374-0.134,0.687-0.399,0.939c-0.267,0.254-0.654,0.381-1.16,0.381c-0.88,0-1.427-0.16-1.64-0.48
			c-0.214-0.32-0.32-0.733-0.32-1.24c0-0.586,0.133-1.146,0.4-1.68c0.266-0.533,0.659-1.006,1.18-1.42
			c0.52-0.413,1.173-0.74,1.96-0.98c0.786-0.239,1.687-0.359,2.7-0.359c1.226,0,2.253,0.153,3.08,0.46
			c0.826,0.307,1.493,0.72,2,1.239c0.506,0.521,0.866,1.107,1.08,1.761c0.213,0.653,0.319,1.34,0.319,2.06v9.96
			c0,0.774,0.12,1.294,0.36,1.561s0.586,0.399,1.04,0.399c0.293,0,0.6-0.053,0.92-0.16c0.32-0.105,0.626-0.266,0.92-0.479
			L312.759,144.997z M305.759,135.637h-0.08c-0.054,0.347-0.494,0.693-1.32,1.04l-3,1.2c-0.854,0.347-1.507,0.833-1.96,1.46
			c-0.454,0.627-0.68,1.406-0.68,2.34c0,0.399,0.04,0.813,0.12,1.24c0.079,0.427,0.226,0.807,0.439,1.14
			c0.213,0.334,0.514,0.606,0.9,0.82c0.386,0.213,0.886,0.319,1.5,0.319c0.88,0,1.593-0.186,2.14-0.56
			c0.546-0.373,0.96-0.84,1.24-1.4c0.28-0.56,0.466-1.166,0.56-1.819s0.141-1.247,0.141-1.78V135.637z"/>
		<path class="st0" d="M313.998,144.878h3.08v-27.721h-3.08v-0.56h6.52v28.28h3.08v0.56h-9.6V144.878z"/>
		<path class="st0" d="M325.397,128.277h3.08v-5.16c0.213,0.08,0.413,0.147,0.6,0.2c0.187,0.054,0.507,0.08,0.96,0.08
			c0.4,0,0.747-0.046,1.041-0.14c0.293-0.094,0.573-0.246,0.84-0.46v5.479h5.68v0.561h-5.68v13.08c0,0.746,0.073,1.354,0.22,1.819
			c0.146,0.467,0.34,0.827,0.58,1.08c0.24,0.254,0.5,0.42,0.78,0.5c0.279,0.08,0.553,0.12,0.819,0.12c0.934,0,1.687-0.34,2.261-1.02
			c0.573-0.681,0.939-1.461,1.1-2.341l0.56,0.2c-0.079,0.347-0.199,0.734-0.359,1.16c-0.16,0.427-0.407,0.834-0.74,1.22
			c-0.334,0.387-0.767,0.707-1.3,0.96c-0.534,0.254-1.2,0.38-2,0.38c-2,0-3.395-0.387-4.181-1.159
			c-0.786-0.773-1.18-1.866-1.18-3.28v-12.72h-3.08V128.277z"/>
		<path class="st0" d="M339.037,144.878h3.08v-27.721h-3.08v-0.56h6.52v15.72h0.08c0.134-0.346,0.36-0.78,0.681-1.3
			c0.319-0.521,0.753-1.014,1.3-1.48c0.546-0.466,1.213-0.866,2-1.199c0.786-0.334,1.727-0.5,2.82-0.5c1.76,0,3.192,0.427,4.3,1.279
			c1.106,0.854,1.66,2.214,1.66,4.08v11.681h3.08v0.56h-9.601v-0.56h3.08v-12.921c0-1.039-0.247-1.893-0.74-2.56
			c-0.493-0.666-1.26-1-2.3-1c-0.854,0-1.667,0.187-2.439,0.56c-0.774,0.374-1.454,0.895-2.04,1.561
			c-0.587,0.667-1.047,1.454-1.381,2.36c-0.333,0.906-0.5,1.894-0.5,2.96v9.04h3.08v0.56h-9.6V144.878z"/>
	</g>
</g>
<g id="TOLI__N">
	<path class="st1" d="M25.574,29.166c-2.24,0-4.237,0.227-5.992,0.681c-1.756,0.454-3.329,1.241-4.721,2.36
		c-1.393,1.121-2.633,2.678-3.722,4.675s-2.088,4.539-2.996,7.625h-1.18V27.895h56.92v16.612h-1.18
		c-0.908-3.086-1.907-5.628-2.996-7.625s-2.331-3.555-3.722-4.675c-1.393-1.119-2.966-1.906-4.721-2.36
		c-1.756-0.454-3.753-0.681-5.992-0.681h-3.268v62.095h8.352v1.271H20.49v-1.271h8.352V29.166H25.574z"/>
	<path class="st1" d="M74.368,46.414c2.088-4.176,4.766-7.747,8.034-10.712c3.268-2.964,6.929-5.25,10.985-6.854
		c4.054-1.603,8.019-2.406,11.892-2.406c4.176,0,8.307,0.787,12.392,2.36c4.085,1.575,7.716,3.813,10.894,6.718
		s5.749,6.432,7.717,10.576c1.966,4.146,2.95,8.821,2.95,14.026c0,4.539-0.923,8.851-2.769,12.937
		c-1.847,4.085-4.328,7.671-7.444,10.758c-3.118,3.086-6.718,5.523-10.803,7.308c-4.085,1.784-8.397,2.678-12.937,2.678
		c-4.479,0-8.776-0.862-12.891-2.587c-4.116-1.725-7.732-4.085-10.848-7.081c-3.118-2.996-5.614-6.521-7.49-10.576
		c-1.876-4.054-2.814-8.442-2.814-13.163C71.236,55.251,72.28,50.59,74.368,46.414z M87.123,76.054
		c0.726,4.147,1.861,7.444,3.404,9.895s3.541,4.162,5.992,5.13c2.451,0.969,5.37,1.452,8.76,1.452c4.478,0,7.989-0.831,10.531-2.496
		c2.542-1.664,4.448-3.964,5.719-6.899c1.271-2.935,2.073-6.415,2.406-10.44c0.332-4.024,0.5-8.397,0.5-13.118
		c0-4.235-0.136-8.275-0.409-12.119c-0.272-3.843-1.044-7.231-2.315-10.167c-1.271-2.935-3.193-5.266-5.765-6.99
		c-2.573-1.725-6.128-2.587-10.667-2.587c-4.237,0-7.625,0.803-10.167,2.406c-2.542,1.604-4.479,3.858-5.81,6.763
		c-1.332,2.905-2.21,6.355-2.633,10.349c-0.424,3.995-0.635,8.383-0.635,13.164C86.034,66.689,86.397,71.91,87.123,76.054z"/>
	<path class="st1" d="M177.088,27.895v1.271h-8.352v62.095h14.979c1.997,0,4.009-0.332,6.037-0.999
		c2.027-0.665,3.933-1.771,5.719-3.313c1.784-1.543,3.389-3.541,4.812-5.992c1.421-2.451,2.526-5.431,3.313-8.941h1.18v20.517
		H147.22v-1.271h8.352V29.166h-8.352v-1.271H177.088z"/>
	<path class="st1" d="M241.995,27.895v1.271h-8.352v62.095h8.352v1.271h-29.867v-1.271h8.352V29.166h-8.352v-1.271H241.995z"/>
	<path class="st1" d="M371.856,25.63l31.289,44.726h0.188V26.945h-8.645V25.63h18.792v1.315h-8.645v65.586h-2.537l-42.283-60.23
		h-0.188v58.915h8.645v1.315h-18.793v-1.315h8.645V26.945h-8.645V25.63L371.856,25.63z"/>
</g>
<path id="Head" class="st2" d="M329.011,91.818c0.857-8.138-8.032-11.198-10.729-16.107
	C318.584,81.801,327.511,85.642,329.011,91.818L329.011,91.818z M263.707,91.818c-0.857-8.138,8.032-11.198,10.729-16.107
	C274.134,81.801,265.207,85.642,263.707,91.818L263.707,91.818z M284.754,44.939c0.018,0.071,0.027,0.145,0.027,0.22
	c0,0.506-0.41,0.916-0.915,0.916c-0.506,0-0.916-0.41-0.916-0.916c0-0.327,0.172-0.615,0.432-0.777
	c-0.721-0.03-1.01,0.471-0.991,1.093c0.02,0.702,0.548,0.93,1.229,1.055c0.681,0.123,1.287-0.138,1.404-0.765
	C285.082,45.457,284.983,45.172,284.754,44.939L284.754,44.939z M251.748,67.65c1.711-5.941,12.332-6.304,16.377-11.757
	C267.298,63.099,255.401,63.149,251.748,67.65L251.748,67.65z M252.377,45.217c0.951-2.361,2.707-5.569,6.246-5.759
	C256.331,40.841,254.395,43.235,252.377,45.217L252.377,45.217z M279.118,42.572c1.403-0.626,3.009-0.393,5.643-0.042
	c-0.712-1.21-0.156-3.772,2.037-3.904c-1.469,1.436-0.537,4.294,0.735,4.785c1.244,0.315,1.998,1.237,2.521,2.378
	c0.224,0.614,0.659,2.579,0.498,3.765c-0.418-0.433-0.917-1.459-0.946-1.174c-0.46,2.802-1.391,4.456-2.867,5.647
	c0.645-1.343,1.187-4.148,1.001-5.624c-0.112-0.884-0.673-0.894-1.091-0.688c-0.558,0.609-3.849,0.825-5.207-1.419
	c0.465,2.13,2.686,2.97,4.524,2.864c-1.625,1.026-4.626,0.282-5.93-1.24C278.75,46.418,280.589,43.695,279.118,42.572
	L279.118,42.572z M277.104,32.517c-8.055,1.614-10.882,14.673-14.068,16.674c3.952-1.099,6.679-8.879,9.579-10.6
	c-2.253,9.003-7.352,12.783-17.995,14.403C267.167,49.154,264.075,34.043,277.104,32.517L277.104,32.517z M255.321,80.763
	c2.705-6.367,15.847-6.533,16.46-15.296c-5.26,6.594-8.472,6.487-11.685,8.117c4.123-2.095,6.256-3.91,7.977-6.156
	c3.287-4.288,3.618-8.684,3.634-9.758C266.52,71.97,253.246,69.766,255.321,80.763L255.321,80.763z M275.393,102.584
	c-0.369-7.53,4.526-11.318,4.216-18.533c-1.628,3.575-3.929,5.792-4.897,10.125c-1.995-6.515,5.912-9.188,3.615-18.442
	C276.464,88.422,265.818,88.038,275.393,102.584L275.393,102.584z M292.979,111.029c-1.819-5.351,1.251-5.598-0.1-10.719
	c-0.836,2.893-1.523,5.387-3.168,6.453c0.36-2.429,2.61-10.116-2.828-15.554C292.94,103.064,279.729,105.634,292.979,111.029
	L292.979,111.029z M296.359,35.312c-2.536-3.349-3.602-3.201-7.767-6.203c1.521,1.662,3.701,4.351,4.171,6.013
	c-1.727-2.198-7.439-6.88-13.564-8.617c1.79,1.171,8.521,7.259,9.405,8.662c-3.621-1.418-5.291-2.371-8.01-2.345
	c1.747,0.799,3.574,1.993,4.472,3.709c-1.794-0.326-2.282-0.429-3.057,0.087c-1.031,5.854-5.286,4.393-6.334,5.063
	c-3.456,2.371-2.099,5.217-3.379,8.099c0.555-1.358,1.367-1.437,2.984-2.08c-2.205,2.27-2.787,5.081-1.973,7.521
	c0.522-1.2,1.709-2.498,3.269-3.243c-1.263,1-2.397,5.176-1.177,6.351c0.501-0.864,1.087-2.04,1.761-2.558
	c-0.407,1.73-0.003,3.211,0.863,4.401c1.725-2.74,4.109-5.334,8.119-7.566c-3.062,3.151-5.113,6.132-6.653,9.029
	c0.376,0.282,0.781,0.535,1.204,0.755c0.845-1.184,1.39-3.795,5.718-6.922c-1.383,2.584-4.279,7.356-1.766,9.356
	c1.386,1.202,3.084,2.269,5.67,2.806c-2.688,0.582-6.792-0.844-8.612-3.177c-0.076,2.755,4.959,5.487,5.856,6.261
	c-1.778-0.422-4.454-0.661-6.897-3.887c-0.281,1.611,0.898,3.647,4.207,6.118c-2.269-0.288-3.412-1.519-4.621-2.56
	c0.864,2.9,2.558,4.343,5.056,4.965c2.477-0.747,6.598-1.643,9.633-3.66c0.427-1.201,0.142-2.965-0.03-4.409
	c-0.657-0.483-1.943-2.132-2.911-2.539c-0.545-0.227-1.631,0.144-2.19-0.107c-1.421-1.092-2.347-3.476-3.117-6.722
	c0.221,0.267,2.222,3.234,2.223,2.764c-0.59-1.17-0.093-2.238,0.66-1.971c1.613,0.892,5.267,1.738,6.788,1.771
	c1.52-0.034,5.174-0.88,6.788-1.771c0.752-0.267,1.25,0.801,0.66,1.971c0.001,0.471,2.003-2.497,2.223-2.764
	c-0.77,3.246-1.696,5.63-3.117,6.722c-0.559,0.252-1.645-0.12-2.19,0.107c-0.968,0.407-2.254,2.056-2.911,2.539
	c-0.172,1.444-0.456,3.209-0.03,4.409c3.034,2.017,7.155,2.913,9.633,3.66c2.498-0.622,4.192-2.065,5.056-4.965
	c-1.209,1.041-2.353,2.272-4.621,2.56c3.308-2.471,4.487-4.507,4.206-6.118c-2.443,3.226-5.12,3.465-6.897,3.887
	c0.897-0.774,5.932-3.506,5.856-6.261c-1.82,2.333-5.924,3.759-8.612,3.177c2.586-0.536,4.284-1.604,5.669-2.806
	c2.513-2-0.383-6.772-1.767-9.356c4.329,3.127,4.873,5.738,5.719,6.922c0.423-0.22,0.828-0.473,1.204-0.755
	c-1.54-2.896-3.591-5.878-6.653-9.029c4.01,2.232,6.394,4.825,8.119,7.566c0.866-1.19,1.271-2.671,0.863-4.401
	c0.673,0.519,1.26,1.695,1.761,2.558c1.219-1.175,0.086-5.351-1.178-6.351c1.56,0.745,2.747,2.042,3.269,3.243
	c0.815-2.44,0.232-5.251-1.973-7.521c1.617,0.643,2.429,0.723,2.984,2.08c-1.281-2.882,0.077-5.729-3.38-8.099
	c-1.048-0.67-5.303,0.79-6.334-5.063c-0.775-0.516-1.264-0.414-3.057-0.087c0.898-1.716,2.725-2.91,4.472-3.709
	c-2.719-0.026-4.39,0.927-8.01,2.345c0.884-1.403,7.615-7.491,9.405-8.662c-6.125,1.737-11.837,6.419-13.564,8.617
	c0.47-1.662,2.65-4.351,4.171-6.013C299.961,32.111,298.894,31.963,296.359,35.312L296.359,35.312z M296.359,72.045
	c-2.123,1.792-3.625,2.461-5.781,3.255c-1.143,0.421-2.601,2.517-3.991,2.642c-0.463,0.042-1.205-0.917-1.639-1.45
	c-1.097,2.934,0.99,4.246,0.815,7.47c0.177-0.831,1.498-1.079,2.356-2.085c-0.123,2.084,0.067,2.503,2.983,4.293
	c-0.122-0.542,0.027-2.415,0.702-2.977c0.492,1.402,0.712,3.104,1.9,4.266c-0.001-0.871,0.663-2.431,1.06-2.534
	c0.04,1.179,0.669,3.67,1.596,3.753c0.927-0.083,1.556-2.574,1.596-3.753c0.397,0.102,1.061,1.663,1.06,2.534
	c1.187-1.162,1.408-2.864,1.9-4.266c0.675,0.562,0.824,2.435,0.702,2.977c2.916-1.79,3.107-2.209,2.983-4.293
	c0.857,1.006,2.179,1.254,2.356,2.085c-0.175-3.224,1.912-4.536,0.815-7.47c-0.435,0.533-1.176,1.492-1.639,1.45
	c-1.391-0.125-2.848-2.222-3.992-2.642C299.984,74.506,298.482,73.837,296.359,72.045L296.359,72.045z M296.359,118.811
	c-1.242-3.061-9.059-6.384-9.252-6.511c-10.35-6.837,0.234-16.721-4.465-21.952c1.101,10.843-5.378,10.271-0.557,21.258
	c-14.782-4.603-17.257-13.565-13.587-21.915c-2.721,3.809-4.153,9.343-3.214,12.479c-7.976-6.26-7.275-14.221-2.941-19.275
	c2.685-4.557,14.253-8.001,14.662-18.874c-3.245,12.65-21.27,13.694-20.177,27.727c-9.212-8.969-7.148-20.683,2.532-26.12
	c-3.237,1.533-9.534,6.168-11.081,7.647c-3.627-14.243,13.634-11.108,17.43-21.042c-5.587,6.183-12.383,4.901-17.5,11.14
	c-2.146-9.053,7.681-17.222,9.94-19.47c-3.902,0.766-6.272,4.253-7.408,5.633c0.08-6.711,2.704-10.55,6.219-13.571
	c0.447,0.722,3.793,3.803,6.128,4.557c-1.399-1.243-6.442-7.507-6.447-8.265c-0.02-2.593,1.335-7.916,2.102-9.455
	c0.858-1.719,4.018-4.493,5.313-4.944c1.309-0.454,3.889-0.298,5.715,0.183c-0.255-0.405,8.817,3.448,11.237,5.426
	c-1.195-2.557-6.357-5.898-10.007-7.128c2.246-1.067,7.199-2.287,9.853-1.949c-0.33-1.062-1.833-1.942-2.828-2.558
	c1.192-0.531,4.229-1.96,9.693-0.27c-0.293-1.61-1.167-2.343-2.086-3.165c3.542-0.635,8.264,1.681,8.375,2.347
	c-0.641-0.333,1.071-4.236,2.351-3.916c1.28-0.319,2.992,3.583,2.351,3.916c0.11-0.667,4.832-2.983,8.374-2.347
	c-0.919,0.822-1.793,1.555-2.086,3.165c5.464-1.69,8.501-0.261,9.693,0.27c-0.994,0.617-2.498,1.497-2.827,2.558
	c2.654-0.338,7.607,0.882,9.853,1.949c-3.65,1.231-8.812,4.571-10.008,7.128c2.42-1.978,11.493-5.831,11.238-5.426
	c1.826-0.481,4.406-0.637,5.715-0.183c1.295,0.451,4.455,3.225,5.313,4.944c0.767,1.539,2.122,6.862,2.102,9.455
	c-0.005,0.758-5.048,7.022-6.448,8.265c2.335-0.754,5.68-3.836,6.128-4.557c3.515,3.02,6.139,6.86,6.219,13.571
	c-1.136-1.38-3.507-4.867-7.408-5.633c2.259,2.247,12.087,10.416,9.94,19.47c-5.117-6.238-11.913-4.956-17.499-11.14
	c3.796,9.934,21.058,6.799,17.43,21.042c-1.547-1.479-7.843-6.114-11.08-7.647c9.681,5.438,11.743,17.151,2.532,26.12
	c1.093-14.033-16.932-15.078-20.178-27.727c0.41,10.873,11.978,14.317,14.663,18.874c4.334,5.054,5.035,13.015-2.941,19.275
	c0.939-3.135-0.493-8.669-3.215-12.479c3.671,8.35,1.195,17.312-13.586,21.915c4.821-10.987-1.658-10.414-0.557-21.258
	c-4.7,5.231,5.884,15.115-4.465,21.952C305.417,112.427,297.601,115.75,296.359,118.811L296.359,118.811z M262.956,23.128
	c-0.265,0.52-2.232,4.195-2.505,5.107c-0.82,2.74,0.779,5.687,4.669,8.7c-0.959-3.125-1.911-6.14-1.309-8.423
	c0.208-0.788,0.607-2.03,1.177-3.015c2.631,1.392,3.933,3.134,4.844,4.293c0.201-0.978-0.329-2.564-1.09-4.001
	c1.614,1.165,2.557,2.415,3.263,3.315c0.216-1.047-0.406-2.787-1.251-4.299c1.266,0.78,2.479,1.958,3.68,3.247
	C274.557,24.696,265.681,17.775,262.956,23.128L262.956,23.128z M307.963,44.939c-0.018,0.071-0.027,0.145-0.027,0.22
	c0,0.506,0.409,0.916,0.915,0.916s0.916-0.41,0.916-0.916c0-0.327-0.173-0.615-0.433-0.777c0.721-0.03,1.01,0.471,0.991,1.093
	c-0.02,0.702-0.548,0.93-1.229,1.055c-0.681,0.123-1.287-0.138-1.404-0.765C307.635,45.457,307.734,45.172,307.963,44.939
	L307.963,44.939z M340.969,67.65c-1.711-5.941-12.331-6.304-16.377-11.757C325.42,63.099,337.317,63.149,340.969,67.65
	L340.969,67.65z M340.341,45.217c-0.951-2.361-2.707-5.569-6.246-5.759C336.386,40.841,338.322,43.235,340.341,45.217
	L340.341,45.217z M313.6,42.572c-1.403-0.626-3.009-0.393-5.643-0.042c0.712-1.21,0.156-3.772-2.037-3.904
	c1.468,1.436,0.537,4.294-0.736,4.785c-1.244,0.315-1.998,1.237-2.521,2.378c-0.224,0.614-0.659,2.579-0.498,3.765
	c0.417-0.433,0.917-1.459,0.946-1.174c0.461,2.802,1.391,4.456,2.867,5.647c-0.645-1.343-1.188-4.148-1.001-5.624
	c0.112-0.884,0.673-0.894,1.091-0.688c0.558,0.609,3.849,0.825,5.207-1.419c-0.465,2.13-2.686,2.97-4.524,2.864
	c1.625,1.026,4.625,0.282,5.93-1.24C313.968,46.418,312.129,43.695,313.6,42.572L313.6,42.572z M315.613,32.517
	c8.054,1.614,10.882,14.673,14.068,16.674c-3.952-1.099-6.679-8.879-9.579-10.6c2.253,9.003,7.353,12.783,17.995,14.403
	C325.551,49.154,328.642,34.043,315.613,32.517L315.613,32.517z M337.396,80.763c-2.705-6.367-15.847-6.533-16.46-15.296
	c5.26,6.594,8.473,6.487,11.685,8.117c-4.123-2.095-6.256-3.91-7.978-6.156c-3.286-4.288-3.618-8.684-3.634-9.758
	C326.197,71.97,339.472,69.766,337.396,80.763L337.396,80.763z M317.324,102.584c0.369-7.53-4.526-11.318-4.216-18.533
	c1.627,3.575,3.928,5.792,4.896,10.125c1.995-6.515-5.912-9.188-3.615-18.442C316.253,88.422,326.899,88.038,317.324,102.584
	L317.324,102.584z M299.738,111.029c1.819-5.351-1.251-5.598,0.099-10.719c0.836,2.893,1.523,5.387,3.168,6.453
	c-0.36-2.429-2.61-10.116,2.828-15.554C299.777,103.064,312.988,105.634,299.738,111.029L299.738,111.029z M329.761,23.128
	c0.264,0.52,2.231,4.195,2.505,5.107c0.821,2.74-0.778,5.687-4.668,8.7c0.959-3.125,1.911-6.14,1.309-8.423
	c-0.208-0.788-0.607-2.03-1.177-3.015c-2.631,1.392-3.933,3.134-4.843,4.293c-0.201-0.978,0.329-2.564,1.089-4.001
	c-1.614,1.165-2.556,2.415-3.262,3.315c-0.216-1.047,0.406-2.787,1.251-4.299c-1.266,0.78-2.48,1.958-3.68,3.247
	C318.16,24.696,327.036,17.775,329.761,23.128L329.761,23.128z M287.821,16.235c1.966,0.5,6.023,4.63,8.007,6.433
	c-1.838-3.914-6.134-7.682-12.712-9.634c3.513,2.876,7.112,6.302,10.992,10.502C293.61,21.968,290.756,18.478,287.821,16.235
	L287.821,16.235z M304.896,16.235c-1.966,0.5-6.023,4.63-8.008,6.433c1.838-3.914,6.134-7.682,12.712-9.634
	c-3.513,2.876-7.112,6.302-10.992,10.502C299.107,21.968,301.961,18.478,304.896,16.235L304.896,16.235z M284.349,20.889
	c2.507,0.637,7.679,5.902,10.209,8.201c-2.343-4.99-7.821-9.794-16.208-12.284c4.479,3.668,9.069,8.037,14.015,13.39
	C291.73,28.198,288.092,23.748,284.349,20.889L284.349,20.889z M308.369,20.889c-2.508,0.637-7.68,5.902-10.21,8.201
	c2.344-4.99,7.822-9.794,16.209-12.284c-4.48,3.668-9.068,8.037-14.014,13.39C300.987,28.198,304.625,23.748,308.369,20.889
	L308.369,20.889z M290.874,11.616c1.054,0.395,3.037,2.915,4.021,4.028c-0.776-2.267-2.913-4.603-6.418-6.077
	c1.761,1.797,3.536,3.903,5.418,6.451C293.715,15.124,292.355,13.03,290.874,11.616L290.874,11.616z M301.844,11.616
	c-1.054,0.395-3.037,2.915-4.021,4.028c0.776-2.267,2.913-4.603,6.418-6.077c-1.761,1.798-3.535,3.903-5.418,6.451
	C299.002,15.124,300.363,13.03,301.844,11.616L301.844,11.616z"/>
</svg>
